<?xml version="1.0" encoding="UTF-8" standalone="no"?>
<svg viewBox="0 0 50 50"
 xmlns="http://www.w3.org/2000/svg" xmlns:xlink="http://www.w3.org/1999/xlink"  version="1.2" baseProfile="tiny">
<title>Qt SVG Document</title>
<desc>Generated with Qt</desc>
<defs>
</defs>
<g fill="none" stroke="black" stroke-width="1" fill-rule="evenodd" stroke-linecap="square" stroke-linejoin="bevel" >

<g fill="#2f343f" fill-opacity="1" stroke="none" transform="matrix(1.11111,0,0,1.66667,-5.6514e-06,-73.6111)"
font-family="Roboto" font-size="10" font-weight="400" font-style="normal" 
>
<rect x="5.08626e-06" y="44.1667" width="45" height="30"/>
</g>

<g fill="#858585" fill-opacity="1" stroke="none" transform="matrix(0,-6.29921,4.19948,0,-350.468,-630.82)"
font-family="Roboto" font-size="10" font-weight="400" font-style="normal" 
>
<rect x="-105.434" y="87.953" width="0.264583" height="0.529167"/>
</g>

<g fill="#858585" fill-opacity="1" stroke="none" transform="matrix(0,-6.29921,4.19948,0,-350.468,-630.82)"
font-family="Roboto" font-size="10" font-weight="400" font-style="normal" 
>
<rect x="-105.17" y="88.2176" width="0.264583" height="0.529167"/>
</g>

<g fill="#858585" fill-opacity="1" stroke="none" transform="matrix(0,-6.29921,4.19948,0,-350.468,-630.82)"
font-family="Roboto" font-size="10" font-weight="400" font-style="normal" 
>
<rect x="-104.905" y="88.4822" width="0.264583" height="0.529167"/>
</g>

<g fill="#858585" fill-opacity="1" stroke="none" transform="matrix(0,-6.29921,4.19948,0,-350.468,-630.82)"
font-family="Roboto" font-size="10" font-weight="400" font-style="normal" 
>
<rect x="-104.641" y="88.7467" width="0.264583" height="0.529167"/>
</g>

<g fill="#858585" fill-opacity="1" stroke="none" transform="matrix(0,-6.29921,4.19948,0,-350.468,-630.82)"
font-family="Roboto" font-size="10" font-weight="400" font-style="normal" 
>
<rect x="-104.376" y="89.0113" width="0.264583" height="0.529167"/>
</g>

<g fill="#858585" fill-opacity="1" stroke="none" transform="matrix(0,-6.29921,-4.19948,0,400.468,-630.82)"
font-family="Roboto" font-size="10" font-weight="400" font-style="normal" 
>
<rect x="-105.434" y="87.953" width="0.264583" height="0.529167"/>
</g>

<g fill="#858585" fill-opacity="1" stroke="none" transform="matrix(0,-6.29921,-4.19948,0,400.468,-630.82)"
font-family="Roboto" font-size="10" font-weight="400" font-style="normal" 
>
<rect x="-105.17" y="88.2176" width="0.264583" height="0.529167"/>
</g>

<g fill="#858585" fill-opacity="1" stroke="none" transform="matrix(0,-6.29921,-4.19948,0,400.468,-630.82)"
font-family="Roboto" font-size="10" font-weight="400" font-style="normal" 
>
<rect x="-104.905" y="88.4822" width="0.264583" height="0.529167"/>
</g>

<g fill="#858585" fill-opacity="1" stroke="none" transform="matrix(0,-6.29921,-4.19948,0,400.468,-630.82)"
font-family="Roboto" font-size="10" font-weight="400" font-style="normal" 
>
<rect x="-104.641" y="88.7467" width="0.264583" height="0.529167"/>
</g>

<g fill="#858585" fill-opacity="1" stroke="none" transform="matrix(0,-6.29921,-4.19948,0,400.468,-630.82)"
font-family="Roboto" font-size="10" font-weight="400" font-style="normal" 
>
<rect x="-104.376" y="89.0113" width="0.264583" height="0.529167"/>
</g>

<g fill="#858585" fill-opacity="1" stroke="none" transform="matrix(0,-6.29921,-4.19948,0,394.912,-639.153)"
font-family="Roboto" font-size="10" font-weight="400" font-style="normal" 
>
<rect x="-105.434" y="87.953" width="0.264583" height="0.529167"/>
</g>

<g fill="#858585" fill-opacity="1" stroke="none" transform="matrix(0,-6.29921,-4.19948,0,394.912,-639.153)"
font-family="Roboto" font-size="10" font-weight="400" font-style="normal" 
>
<rect x="-105.17" y="88.2176" width="0.264583" height="0.529167"/>
</g>

<g fill="#858585" fill-opacity="1" stroke="none" transform="matrix(0,-6.29921,-4.19948,0,394.912,-639.153)"
font-family="Roboto" font-size="10" font-weight="400" font-style="normal" 
>
<rect x="-104.905" y="88.4822" width="0.264583" height="0.529167"/>
</g>

<g fill="#858585" fill-opacity="1" stroke="none" transform="matrix(0,-6.29921,-4.19948,0,394.912,-639.153)"
font-family="Roboto" font-size="10" font-weight="400" font-style="normal" 
>
<rect x="-104.641" y="88.7467" width="0.264583" height="0.529167"/>
</g>

<g fill="#858585" fill-opacity="1" stroke="none" transform="matrix(0,-6.29921,-4.19948,0,394.912,-639.153)"
font-family="Roboto" font-size="10" font-weight="400" font-style="normal" 
>
<rect x="-104.376" y="89.0113" width="0.264583" height="0.529167"/>
</g>

<g fill="#858585" fill-opacity="1" stroke="none" transform="matrix(0,-6.29921,4.19948,0,-344.912,-639.153)"
font-family="Roboto" font-size="10" font-weight="400" font-style="normal" 
>
<rect x="-105.434" y="87.953" width="0.264583" height="0.529167"/>
</g>

<g fill="#858585" fill-opacity="1" stroke="none" transform="matrix(0,-6.29921,4.19948,0,-344.912,-639.153)"
font-family="Roboto" font-size="10" font-weight="400" font-style="normal" 
>
<rect x="-105.17" y="88.2176" width="0.264583" height="0.529167"/>
</g>

<g fill="#858585" fill-opacity="1" stroke="none" transform="matrix(0,-6.29921,4.19948,0,-344.912,-639.153)"
font-family="Roboto" font-size="10" font-weight="400" font-style="normal" 
>
<rect x="-104.905" y="88.4822" width="0.264583" height="0.529167"/>
</g>

<g fill="#858585" fill-opacity="1" stroke="none" transform="matrix(0,-6.29921,4.19948,0,-344.912,-639.153)"
font-family="Roboto" font-size="10" font-weight="400" font-style="normal" 
>
<rect x="-104.641" y="88.7467" width="0.264583" height="0.529167"/>
</g>

<g fill="#858585" fill-opacity="1" stroke="none" transform="matrix(0,-6.29921,4.19948,0,-344.912,-639.153)"
font-family="Roboto" font-size="10" font-weight="400" font-style="normal" 
>
<rect x="-104.376" y="89.0113" width="0.264583" height="0.529167"/>
</g>

<g fill="none" stroke="#000000" stroke-opacity="1" stroke-width="1" stroke-linecap="square" stroke-linejoin="bevel" transform="matrix(1,0,0,1,0,0)"
font-family="Roboto" font-size="10" font-weight="400" font-style="normal" 
>
</g>
</g>
</svg>
