<?xml version="1.0" encoding="UTF-8" standalone="no"?>
<svg viewBox="0 0 50 50"
 xmlns="http://www.w3.org/2000/svg" xmlns:xlink="http://www.w3.org/1999/xlink"  version="1.2" baseProfile="tiny">
<title>Qt SVG Document</title>
<desc>Generated with Qt</desc>
<defs>
</defs>
<g fill="none" stroke="black" stroke-width="1" fill-rule="evenodd" stroke-linecap="square" stroke-linejoin="bevel" >

<g fill="#2f343f" fill-opacity="1" stroke="none" transform="matrix(1.11111,0,0,1.66667,0,-116.667)"
font-family="Roboto" font-size="10" font-weight="400" font-style="normal" 
>
<rect x="0" y="70" width="45" height="30"/>
</g>

<g fill="#85858f" fill-opacity="1" stroke="none" transform="matrix(4.19948,0,0,6.29921,-1.11111,-1820.87)"
font-family="Roboto" font-size="10" font-weight="400" font-style="normal" 
>
<rect x="4.49792" y="294.354" width="2.91042" height="0.264583"/>
</g>

<g fill="#85858f" fill-opacity="1" stroke="none" transform="matrix(4.19948,0,0,6.29921,-1.11111,-1820.87)"
font-family="Roboto" font-size="10" font-weight="400" font-style="normal" 
>
<rect x="4.49792" y="291.973" width="2.91042" height="0.264583"/>
</g>

<g fill="#85858f" fill-opacity="1" stroke="none" transform="matrix(4.19948,0,0,6.29921,-1.11111,-1820.87)"
font-family="Roboto" font-size="10" font-weight="400" font-style="normal" 
>
<rect x="4.49792" y="292.237" width="0.264583" height="2.11667"/>
</g>

<g fill="#85858f" fill-opacity="1" stroke="none" transform="matrix(4.19948,0,0,6.29921,-1.11111,-1820.87)"
font-family="Roboto" font-size="10" font-weight="400" font-style="normal" 
>
<rect x="7.14375" y="292.237" width="0.264583" height="2.11667"/>
</g>

<g fill="#85858f" fill-opacity="1" stroke="none" transform="matrix(4.19948,0,0,6.29921,-34.7921,-1818.47)"
font-family="Roboto" font-size="10" font-weight="400" font-style="normal" 
>
<rect x="15.164" y="293.444" width="0.79375" height="0.264583"/>
</g>

<g fill="#85858f" fill-opacity="1" stroke="none" transform="matrix(4.19948,0,0,6.29921,-34.7921,-1818.47)"
font-family="Roboto" font-size="10" font-weight="400" font-style="normal" 
>
<rect x="13.0474" y="291.063" width="2.91042" height="0.264583"/>
</g>

<g fill="#85858f" fill-opacity="1" stroke="none" transform="matrix(4.19948,0,0,6.29921,-34.7921,-1818.47)"
font-family="Roboto" font-size="10" font-weight="400" font-style="normal" 
>
<rect x="13.0474" y="291.328" width="0.264583" height="0.529167"/>
</g>

<g fill="#85858f" fill-opacity="1" stroke="none" transform="matrix(4.19948,0,0,6.29921,-34.7921,-1818.47)"
font-family="Roboto" font-size="10" font-weight="400" font-style="normal" 
>
<rect x="15.6932" y="291.328" width="0.264583" height="2.11667"/>
</g>

<g fill="none" stroke="#000000" stroke-opacity="1" stroke-width="1" stroke-linecap="square" stroke-linejoin="bevel" transform="matrix(1,0,0,1,0,0)"
font-family="Roboto" font-size="10" font-weight="400" font-style="normal" 
>
</g>
</g>
</svg>
